<svg xmlns="http://www.w3.org/2000/svg" viewBox="0 0 570.03 241.42"><defs><style>.cls-1{fill:#fff;}.cls-2{fill:#ff4f58;}</style></defs><g id="Layer_2" data-name="Layer 2"><g id="Layer_1-2" data-name="Layer 1"><path class="cls-1" d="M0,49.9V38.38A4.08,4.08,0,0,1,3.36,35H138.24a4.08,4.08,0,0,1,3.36,3.36V49.9a4.08,4.08,0,0,1-3.36,3.36H81.36V176.14A3.1,3.1,0,0,1,78.48,179H63.12a3.1,3.1,0,0,1-2.88-2.88V53.26H3.36A4.08,4.08,0,0,1,0,49.9Z"/><path class="cls-1" d="M212.41,129.82c0,33.84-24.25,51.6-54,51.6s-54-17.76-54-51.6,24.24-51.6,54-51.6C188.41,78.22,212.41,96,212.41,129.82Zm-54-33.36c-20.16,0-32.89,13.92-32.89,33.36,0,19.92,12.73,33.36,32.89,33.36,19.92,0,32.88-13.68,32.88-33.36C191.29,110.38,178.33,96.46,158.41,96.46Z"/><path class="cls-1" d="M225.37,98.86A4.08,4.08,0,0,1,222,95.5V84a4.08,4.08,0,0,1,3.36-3.36h13V58.3c0-1.44,2.64-4.08,4.08-4.08h13c1.44,0,4.08,2.64,4.08,4.08V80.62h32.64A4.08,4.08,0,0,1,295.45,84V95.5a4.08,4.08,0,0,1-3.36,3.36H259.45v45.6c0,15.6,6.48,18.72,16.56,18.72,5.52,0,12-3.36,15.6-5.52,2.4-1.44,3.84-.24,4.8,1.68l4.08,7.92a5.81,5.81,0,0,1,1,3.12c0,1.68-1,2.64-3.12,3.84-4.8,2.88-14.16,7.2-24,7.2-21.36,0-36-10.32-36-37V98.86Z"/><path class="cls-1" d="M419.06,129.82c0,33.84-24.24,51.6-54,51.6s-54-17.76-54-51.6,24.24-51.6,54-51.6C395.06,78.22,419.06,96,419.06,129.82Zm-54-33.36c-20.16,0-32.88,13.92-32.88,33.36,0,19.92,12.72,33.36,32.88,33.36,19.92,0,32.88-13.68,32.88-33.36C397.94,110.38,385,96.46,365.06,96.46Z"/><path class="cls-1" d="M473.54,78.22c12.72,0,22.8,4.08,29.76,10.32h.48l.48-.72c3.84-5.76,11.28-9.6,21.36-9.6,2.88,0,4.08,1,4.08,2.4V96.7c0,1.2-1.68,2.4-2.64,2.4s-1.68-.24-4.08-.24a14.11,14.11,0,0,0-10.32,4.08,43.11,43.11,0,0,1,2.4,13.68c0,21.36-14.88,38.4-41.52,38.4a47.64,47.64,0,0,1-21.36-4.56c-2.16,2.4-4.8,6.24-4.8,10.8,0,6.48,5.28,9.6,13.68,9.6h26.16c27.12,0,40.32,15.6,40.32,32.64,0,18.24-13.92,37.92-49.44,37.92h-1c-29.76,0-47.52-15.6-47.52-33.12,0-10.08,5-18,10.8-23.76v-1c-7.44-4.32-11.76-11.76-11.76-21.84,0-9.36,5.28-17,10.56-21.84-4.8-6.48-7.2-14.4-7.2-23.28C432,95.26,446.9,78.22,473.54,78.22Zm0,58.56c14.88,0,22.8-9.12,22.8-20.16s-7.92-20.16-22.8-20.16-22.8,9.12-22.8,20.16S458.66,136.78,473.54,136.78Zm-13.92,51.84a20.67,20.67,0,0,0-8.88,16.8c0,10.08,9.84,17.76,25.2,17.76h2.64c19.2,0,27.84-9.12,27.84-19,0-7.2-4.56-15.6-19.2-15.6h-27.6Z"/><path class="cls-2" d="M557.07,32.62a13,13,0,1,1-13,13A12.91,12.91,0,0,1,557.07,32.62Z"/><rect class="cls-1" x="546.51" y="80.62" width="21.12" height="98.4" rx="4.08"/><path class="cls-1" d="M349.93,93.85a42.84,42.84,0,0,0-42-33.45,43.61,43.61,0,0,0-8.76.89L290,63.2,288.41,54a43,43,0,0,0-85.24,2.66l-.87,8.22-8.66-.14A43,43,0,0,0,154.18,91l-16.66-7a61.06,61.06,0,0,1,48.95-36.91,61.15,61.15,0,0,1,117.72-4.62c1.25-.08,2.49-.12,3.74-.12a60.83,60.83,0,0,1,59.64,47.52Z"/><path class="cls-2" d="M259.85,228.77c-35,0-67.53-8.1-89.32-22.21a9,9,0,1,1,9.84-15.18c18.65,12.08,48.36,19.3,79.48,19.3s59.91-6.89,78.86-18.9a9,9,0,1,1,9.68,15.28C326.62,220.85,294.35,228.77,259.85,228.77Z"/></g></g></svg>