<?xml version="1.0" encoding="utf-8"?>
<!-- Generator: Adobe Illustrator 26.5.0, SVG Export Plug-In . SVG Version: 6.00 Build 0)  -->
<svg version="1.1" id="Layer_1" xmlns="http://www.w3.org/2000/svg" xmlns:xlink="http://www.w3.org/1999/xlink" x="0px" y="0px"
	 viewBox="0 0 570 241.4" style="enable-background:new 0 0 570 241.4;" xml:space="preserve">
<g id="Layer_2_00000150100676686121528970000014817995924095044754_">
	<g id="Layer_1-2">
		<path d="M0,49.9V38.4c0.3-1.7,1.6-3.1,3.4-3.4h134.9c1.7,0.3,3.1,1.6,3.4,3.4v11.5c-0.3,1.7-1.6,3.1-3.4,3.4H81.4v122.9
			c-0.1,1.5-1.3,2.8-2.9,2.9H63.1c-1.5-0.1-2.8-1.3-2.9-2.9V53.3H3.4C1.6,53,0.3,51.6,0,49.9z"/>
		<path d="M212.4,129.8c0,33.8-24.2,51.6-54,51.6s-54-17.8-54-51.6s24.2-51.6,54-51.6C188.4,78.2,212.4,96,212.4,129.8z M158.4,96.5
			c-20.2,0-32.9,13.9-32.9,33.4c0,19.9,12.7,33.4,32.9,33.4c19.9,0,32.9-13.7,32.9-33.4C191.3,110.4,178.3,96.5,158.4,96.5z"/>
		<path d="M225.4,98.9c-1.7-0.3-3.1-1.6-3.4-3.4V84c0.3-1.7,1.6-3.1,3.4-3.4h13V58.3c0-1.4,2.6-4.1,4.1-4.1h13
			c1.4,0,4.1,2.6,4.1,4.1v22.3h32.6c1.7,0.3,3,1.7,3.3,3.4v11.5c-0.3,1.7-1.6,3.1-3.4,3.4h-32.6v45.6c0,15.6,6.5,18.7,16.6,18.7
			c5.5,0,12-3.4,15.6-5.5c2.4-1.4,3.8-0.2,4.8,1.7l4.1,7.9c0.6,0.9,1,2,1,3.1c0,1.7-1,2.6-3.1,3.8c-4.8,2.9-14.2,7.2-24,7.2
			c-21.4,0-36-10.3-36-37V98.9H225.4z"/>
		<path d="M419.1,129.8c0,33.8-24.2,51.6-54,51.6s-54-17.8-54-51.6s24.2-51.6,54-51.6C395.1,78.2,419.1,96,419.1,129.8z M365.1,96.5
			c-20.2,0-32.9,13.9-32.9,33.4c0,19.9,12.7,33.4,32.9,33.4c19.9,0,32.9-13.7,32.9-33.4C397.9,110.4,385,96.5,365.1,96.5z"/>
		<path d="M473.5,78.2c12.7,0,22.8,4.1,29.8,10.3h0.5l0.5-0.7c3.8-5.8,11.3-9.6,21.4-9.6c2.9,0,4.1,1,4.1,2.4v16.1
			c0,1.2-1.7,2.4-2.6,2.4s-1.7-0.2-4.1-0.2c-3.9-0.1-7.6,1.4-10.3,4.1c1.5,4.4,2.3,9,2.4,13.7c0,21.4-14.9,38.4-41.5,38.4
			c-7.4,0.2-14.7-1.4-21.4-4.6c-2.2,2.4-4.8,6.2-4.8,10.8c0,6.5,5.3,9.6,13.7,9.6h26.2c27.1,0,40.3,15.6,40.3,32.6
			c0,18.2-13.9,37.9-49.4,37.9h-1c-29.8,0-47.5-15.6-47.5-33.1c0-10.1,5-18,10.8-23.8v-1c-7.4-4.3-11.8-11.8-11.8-21.8
			c0-9.4,5.3-17,10.6-21.8c-4.8-6.5-7.2-14.4-7.2-23.3C432,95.3,446.9,78.2,473.5,78.2z M473.5,136.8c14.9,0,22.8-9.1,22.8-20.2
			s-7.9-20.2-22.8-20.2s-22.8,9.1-22.8,20.2S458.7,136.8,473.5,136.8z M459.6,188.6c-5.5,3.8-8.8,10.1-8.9,16.8
			c0,10.1,9.8,17.8,25.2,17.8h2.6c19.2,0,27.8-9.1,27.8-19c0-7.2-4.6-15.6-19.2-15.6L459.6,188.6L459.6,188.6z"/>
		<path d="M557.1,32.6c7.2,0,13,5.8,13,13s-5.8,13-13,13s-13-5.8-13-13l0,0c0-7.1,5.7-13,12.8-13C556.9,32.6,557,32.6,557.1,32.6z"
			/>
		<path d="M550.6,80.6h13c2.3,0,4.1,1.8,4.1,4.1v90.2c0,2.3-1.8,4.1-4.1,4.1h-13c-2.3,0-4.1-1.8-4.1-4.1V84.7
			C546.5,82.4,548.3,80.6,550.6,80.6z"/>
		<path d="M349.9,93.8c-4.4-19.6-21.9-33.5-42-33.5c-2.9,0-5.9,0.3-8.8,0.9l-9.2,1.9l-1.6-9.2c-3.8-23.4-25.9-39.4-49.3-35.6
			c-19.3,3.1-34,18.8-35.9,38.2l-0.9,8.2l-8.7-0.1c-17.2,0.1-32.8,10.4-39.5,26.3l-16.7-7c8.5-20.2,27.2-34.3,48.9-36.9
			c7.8-32.9,40.7-53.2,73.6-45.4c20.8,4.9,37.6,20.4,44.1,40.8c1.2-0.1,2.5-0.1,3.7-0.1c28.6-0.1,53.4,19.6,59.6,47.5L349.9,93.8z"
			/>
		<path d="M259.9,228.8c-35,0-67.5-8.1-89.3-22.2c-4.2-2.7-5.4-8.3-2.7-12.5s8.3-5.4,12.5-2.7l0,0c18.6,12.1,48.4,19.3,79.5,19.3
			s59.9-6.9,78.9-18.9c4.2-2.7,9.8-1.4,12.5,2.8c2.7,4.2,1.4,9.8-2.8,12.5C326.6,220.9,294.4,228.8,259.9,228.8z"/>
	</g>
</g>
</svg>
