<svg clip-rule="evenodd" fill-rule="evenodd" height="512" image-rendering="optimizeQuality" shape-rendering="geometricPrecision" text-rendering="geometricPrecision" viewBox="0 0 1.70666 1.70666" width="512" xmlns="http://www.w3.org/2000/svg"><g id="Layer_x0020_1"><g id="_273379112"><path id="_273379712" d="m1.144 1.62011c-.00901575 0-.0172087-.0061378-.0194173-.0153071l-.27126-1.11986-.271244 1.11988c-.00261024.0107362-.0134331.0173189-.0241378.0147362-.0107362-.00261024-.0173307-.0134173-.0147323-.0241378l.290685-1.20013c.00216929-.0089685.0102087-.0152913.0194331-.0152913.00923228 0 .0172638.00632283.0194331.0152913l.290685 1.20013c.00261024.0107244-.00398425.0215433-.0147323.0241378-.0015748.00036221-.00316142.00055512-.0047126.00055512z" fill="#8f818f"/><path id="_273380048" d="m1.1299 1.56194c-.00312205 0-.00627559-.00073622-.00923228-.00227953l-.491087-.256394c-.00647244-.00337402-.0105827-.0100157-.0107362-.0173071-.00015354-.00729134.0036811-.0140984.00998425-.0177362l.35348-.204067-.242787-.242815c-.00640551-.00640157-.00770866-.0163031-.0031811-.0241339l.139732-.241827c.00552756-.00957087.0177638-.0128031.0273346-.0073189.00955118.00552756.0128346.0177638.00730709.0273189l-.132055.228535.250354.250366c.00438976.00440551.0065.0105984.0056811.016752-.0008189.00616929-.00444488.0116102-.00983071.0147244l-.344524.198898.458811.239551c.0097874.00511024.0135945.0171969.00847244.0269685-.00353937.00683465-.0105157.0107638-.0177244.0107638z" fill="#8f818f"/><path id="_273380336" d="m.853327.419961c-.0556693 0-.100961-.0452756-.100961-.100945 0-.0556654.0452913-.100957.100961-.100957.0556654 0 .100957.0452913.100957.100957 0 .0556693-.0452913.100945-.100957.100945z" fill="#fc8086"/><path id="_273380192" d="m.592843 1.49547c-.00793307 0-.0154331-.00475197-.0185669-.0125394-.00411024-.010252.00086221-.0219016.0111142-.0260157l.437476-.175677-.339701-.20398c-.00541732-.00323228-.0089685-.0088622-.00959449-.0151378-.00062598-.00629528.00173622-.0124882.00638976-.0167677l.25002-.22887-.134705-.238858c-.00543307-.00962598-.00202756-.0218228.00759449-.027248.0096378-.00541732.0218307-.00201575.027248.00759449l.142512.252705c.00456693.00811024.00296063.0182913-.00390157.0245827l-.242008.2215.351217.210902c.00651181.00389764.0102362.0111654.0096378.0187323-.00061024.00757087-.00544488.0141535-.0124882.0169724l-.474795.190661c-.00244488.00098819-.00497638.00144488-.00744882.00144488z" fill="#8f818f"/><path id="_273379664" d="m.623717 1.70665h-.122165c-.0110394 0-.02-.00897244-.02-.02v-.0865394c0-.0110394.00896063-.02.02-.02h.122165c.0110394 0 .02.00897244.02.02v.0865394c0 .0110433-.00894488.02-.02.02z" fill="#786e79"/><path id="_273380000" d="m1.2051 1.70665h-.122165c-.0110394 0-.02-.00897244-.02-.02v-.0865394c0-.0110394.00897244-.02.02-.02h.122165c.0110394 0 .02.00897244.02.02v.0865394c.00001181.0110433-.00896063.02-.02.02z" fill="#786e79"/><g fill="#97e4f9"><path id="_273378824" d="m1.15593.574752c-.00511417 0-.0102362-.00196063-.0141535-.00586614-.0078189-.00780315-.0078189-.0204724 0-.0282756.139638-.139638.139638-.366827 0-.506465-.0078189-.00780315-.0078189-.0204724 0-.0282756.00782283-.00782283.0204882-.00782283.0282953 0 .15522.15522.15522.407795 0 .563016-.00390551.00392126-.0090315.00586614-.0141417.00586614z"/><path id="_273379496" d="m1.07485.493669c-.00511417 0-.0102362-.00195669-.0141535-.0058622-.00782283-.00780709-.00782283-.0204724 0-.0282756.0949173-.0949173.0949173-.249374 0-.344291-.00782283-.00780315-.00782283-.0204685 0-.0282756.00782283-.00782283.0204882-.00782283.0282953 0 .110496.110512.110496.290331 0 .400839-.00388976.00390945-.0090315.00586614-.0141417.00586614z"/><path id="_273379424" d="m1.00197.420795c-.00511024 0-.0102362-.00195669-.0141496-.0058622-.00782283-.00780709-.00782283-.0204724 0-.0282795.0547323-.0547323.0547323-.143803 0-.198551-.00782283-.00780709-.00782283-.0204724 0-.0282795.0078189-.0078189.0204882-.0078189.0282913 0 .0703189.0703346.0703189.184776 0 .25511-.00390551.00392126-.00902756.0058622-.0141417.0058622z"/><path id="_273379352" d="m.55072.574752c-.00512205 0-.0102323-.00196063-.0141339-.00586614-.15522-.15522-.15522-.407795 0-.563016.00780709-.00782283.0204724-.00782283.0282756 0 .00782283.00780315.00782283.0204724 0 .0282756-.139622.139638-.139622.366827 0 .506465.00782283.00780315.00782283.0204724 0 .0282756-.0038937.00392126-.00901575.00586614-.0141417.00586614z"/><path id="_273379184" d="m.631819.493669c-.00512598 0-.0102362-.00195669-.0141378-.0058622-.110528-.110512-.110528-.290327 0-.400839.00782283-.0078189.0204724-.0078189.0282795 0 .0078189.00780709.0078189.0204724 0 .0282795-.0949173.0949173-.0949173.24937 0 .344287.0078189.00780315.0078189.0204724 0 .0282756-.00390551.00390157-.00903543.00585827-.0141417.00585827z"/><path id="_273379016" d="m.704677.420795c-.00512205 0-.0102362-.00195669-.0141378-.0058622-.0703346-.0703346-.0703346-.184776 0-.25511.00782283-.0078189.0204724-.0078189.0282795 0 .00782283.00780709.00782283.0204724 0 .0282795-.0547323.0547323-.0547323.143803 0 .198551.00782283.00780709.00782283.0204724 0 .0282795-.00390551.00392126-.00901969.0058622-.0141417.0058622z"/></g><path id="_273379040" d="m1.3545 1.70666h-1.00233c-.0110394 0-.02-.00897244-.02-.02 0-.0110276.00896063-.02.02-.02h1.00233c.0110394 0 .02.00897244.02.02 0 .0110276-.00896063.02-.02.02z" fill="#8f818f"/></g></g></svg>