<svg clip-rule="evenodd" fill-rule="evenodd" height="1.707in" image-rendering="optimizeQuality" shape-rendering="geometricPrecision" text-rendering="geometricPrecision" viewBox="0 0 1707 1707" width="1.707in" xmlns="http://www.w3.org/2000/svg"><g id="Layer_x0020_1"><g id="_392618872"><path d="m853 1707c-184 0-356-16-486-45-144-31-217-75-217-129 0-50 63-91 188-122 110-28 261-46 425-51 63-2 127-1 181 0 164 5 315 23 425 51 125 31 188 72 188 122 0 54-73 98-217 129-130 29-303 45-487 45z" fill="#bababa"/><path d="m853 1503c-6 0-12-2-16-7-111-114-250-268-347-440-96-172-143-346-143-533 0-288 227-523 506-523 280 0 507 235 507 523 0 187-47 361-143 533-97 172-236 326-347 440-4 5-10 7-17 7z" fill="#f44336"/><path d="m853 780c-161 0-293-136-293-303 0-81 30-156 85-212 56-57 129-88 208-88s153 31 208 88c55 56 86 131 86 212 0 167-132 303-294 303z" fill="#fafafc"/></g></g></svg>